# xmcd CD database file
#
# Track frame offsets:
#	150
#	13503
#	34009
#	53704
#	69005
#	85917
#	96853
#	119125
#
# Disc length: 1800 seconds
#
# Revision: 0
# Processed by: cddbd v1.5.2PL0 Copyright (c) Steve Scherf et al.
# Submitted via: CDex 1.70beta2
#
DISCID=5e070608
DTITLE=Hochstrate, Philip - Piano - Pieces
DYEAR=2008
DGENRE=Jazz
TTITLE0=Piece 1
TTITLE1=Piece 2
TTITLE2=Piece 3
TTITLE3=Piece 4
TTITLE4=Piece 5
TTITLE5=Piece 6
TTITLE6=Piece 7
TTITLE7=Piece 8
EXTD=YEAR: 2008
EXTT0=
EXTT1=
EXTT2=
EXTT3=
EXTT4=
EXTT5=
EXTT6=
EXTT7=
PLAYORDER=
